<?xml version="1.0" standalone="no"?>
<!DOCTYPE svg PUBLIC "-//W3C//DTD SVG 20010904//EN"
 "http://www.w3.org/TR/2001/REC-SVG-20010904/DTD/svg10.dtd">
<svg version="1.0" xmlns="http://www.w3.org/2000/svg"
 width="600.000000pt" height="300.000000pt" viewBox="0 0 600.000000 300.000000"
 preserveAspectRatio="xMidYMid meet">

<g transform="translate(0.000000,300.000000) scale(0.100000,-0.100000)"
fill="#000000" stroke="none">
<path d="M150 2143 c0 -20 9 -112 19 -203 24 -202 42 -362 81 -725 17 -154 37
-333 45 -398 8 -66 15 -123 15 -128 0 -15 320 -11 324 4 2 6 16 127 30 267 39
375 50 460 57 460 3 0 9 -26 13 -57 10 -77 42 -379 56 -523 18 -181 -4 -161
172 -158 l152 3 83 740 c45 407 82 743 83 748 0 4 -45 7 -100 7 -97 0 -100 -1
-100 -22 0 -13 -5 -66 -11 -118 -12 -116 -43 -418 -69 -680 -26 -260 -31 -300
-40 -300 -8 0 -12 28 -40 315 -23 238 -57 574 -70 700 -5 50 -10 93 -10 98 0
4 -51 7 -114 7 l-114 0 -7 -82 c-4 -46 -17 -191 -30 -323 -13 -132 -34 -351
-47 -487 -12 -136 -26 -244 -30 -240 -4 4 -14 72 -22 152 -9 80 -25 228 -36
330 -11 102 -29 271 -40 375 -11 105 -22 209 -25 233 l-6 42 -110 0 -109 0 0
-37z"/>
<path d="M1410 1430 l0 -750 315 0 315 0 0 105 0 105 -197 2 -198 3 -3 217 -2
218 162 2 163 3 3 102 3 103 -163 2 -163 3 -3 213 -2 212 200 0 200 0 0 105 0
105 -315 0 -315 0 0 -750z"/>
<path d="M2200 1430 l0 -752 238 4 c220 4 241 5 296 27 128 51 184 148 193
336 10 212 -27 336 -118 402 l-50 35 33 24 c84 63 113 153 106 339 -5 143 -27
206 -91 260 -72 62 -105 68 -369 73 l-238 4 0 -752z m423 512 c36 -34 50 -97
45 -200 -3 -72 -8 -94 -27 -121 -30 -41 -56 -51 -142 -51 l-69 0 0 201 0 201
84 -3 c72 -3 88 -8 109 -27z m14 -608 c45 -33 55 -80 51 -241 -3 -141 -3 -143
-31 -170 -26 -27 -32 -28 -125 -28 l-97 0 -3 220 c-1 121 0 226 3 233 9 24
166 12 202 -14z"/>
<path d="M3070 1430 l0 -750 115 0 115 0 0 309 c0 272 2 310 16 315 9 3 78 6
155 6 l140 0 -3 103 -3 102 -153 3 -152 3 2 222 3 222 198 3 198 2 -3 103 -3
102 -312 3 -313 2 0 -750z"/>
<path d="M3810 1430 l0 -750 310 0 310 0 5 23 c3 12 5 58 3 102 l-3 80 -195 5
-195 5 -3 643 -2 642 -115 0 -115 0 0 -750z"/>
<path d="M4540 1430 l0 -750 115 0 115 0 0 750 0 750 -115 0 -115 0 0 -750z"/>
<path d="M4915 2163 c32 -82 235 -692 235 -708 0 -12 -56 -187 -125 -389 -69
-203 -125 -372 -125 -377 0 -5 47 -9 105 -9 100 0 106 1 115 23 5 12 48 142
96 290 48 147 90 267 93 267 4 0 44 -116 89 -257 46 -142 89 -273 97 -290 l15
-33 121 0 c111 0 121 1 114 17 -9 26 -126 367 -198 578 l-60 180 61 180 c33
99 88 260 121 358 34 97 61 180 61 183 0 2 -48 3 -107 2 l-106 -3 -88 -259
c-87 -253 -95 -274 -103 -265 -2 2 -38 110 -79 239 -42 129 -80 247 -86 263
l-11 27 -121 0 c-111 0 -121 -1 -114 -17z"/>
</g>
</svg>
